<?xml version="1.0" ?><!-- Uploaded to: SVG Repo, www.svgrepo.com, Generator: SVG Repo Mixer Tools -->
<svg width="800px" height="800px" viewBox="0 0 32 32" id="object" xmlns="http://www.w3.org/2000/svg"><defs><style>.cls-1{fill:#eef5fd;}.cls-2{fill:#6d6daa;}.cls-3{fill:#ffd599;}.cls-4{fill:#96d7ff;}.cls-5{fill:#d6b5b0;}</style></defs><title/><path class="cls-1" d="M21.48,30h-11a1,1,0,0,1-1-.92L8,10H24L22.47,29.08A1,1,0,0,1,21.48,30Z"/><path class="cls-2" d="M21.48,31h-11a2,2,0,0,1-2-1.84L7,10.08a1,1,0,0,1,.27-.76A1,1,0,0,1,8,9H24a1,1,0,0,1,.73.32,1,1,0,0,1,.27.76L23.47,29.16A2,2,0,0,1,21.48,31ZM9.08,11l1.44,18h11l1.44-18Z"/><polygon class="cls-3" points="22.72 26 23.68 14 8.32 14 9.28 26 22.72 26"/><path class="cls-2" d="M22.72,27H9.28a1,1,0,0,1-1-.92l-1-12a1.05,1.05,0,0,1,.26-.76A1,1,0,0,1,8.32,13H23.68a1,1,0,0,1,.74.32,1.05,1.05,0,0,1,.26.76l-1,12A1,1,0,0,1,22.72,27ZM10.2,25H21.8l.8-10H9.4Z"/><rect class="cls-4" height="4" width="20" x="6" y="6"/><path class="cls-2" d="M26,11H6a1,1,0,0,1-1-1V6A1,1,0,0,1,6,5H26a1,1,0,0,1,1,1v4A1,1,0,0,1,26,11ZM7,9H25V7H7Z"/><path class="cls-5" d="M25,6H7L8.72,2.55A1,1,0,0,1,9.62,2H22.38a1,1,0,0,1,.9.55Z"/><path class="cls-2" d="M25,7H7a1,1,0,0,1-.89-1.45L7.83,2.11A2,2,0,0,1,9.62,1H22.38a2,2,0,0,1,1.79,1.11l1.72,3.44A1,1,0,0,1,25,7ZM8.62,5H23.38l-1-2H9.62Z"/><ellipse class="cls-5" cx="16" cy="20" rx="3" ry="2.5" transform="translate(-8.27 28.19) rotate(-70)"/><path class="cls-2" d="M15.69,24a3,3,0,0,1-1.06-.19,3.79,3.79,0,0,1-1.92-5,3.78,3.78,0,0,1,4.66-2.56,3.79,3.79,0,0,1,1.92,5h0A4,4,0,0,1,15.69,24Zm.61-5.9a2,2,0,0,0-1.71,1.44,1.82,1.82,0,0,0,.73,2.39c.76.28,1.72-.35,2.09-1.37h0a1.82,1.82,0,0,0-.73-2.39A1.22,1.22,0,0,0,16.3,18.05Z"/></svg>