<?xml version="1.0" encoding="iso-8859-1"?>
<!-- Uploaded to: SVG Repo, www.svgrepo.com, Generator: SVG Repo Mixer Tools -->
<svg height="800px" width="800px" version="1.1" id="Layer_1" xmlns="http://www.w3.org/2000/svg" xmlns:xlink="http://www.w3.org/1999/xlink" 
	 viewBox="0 0 512 512" xml:space="preserve">
<g>
	<path style="fill:#38454F;" d="M357.517,194.207c-9.71,0-17.655-7.945-17.655-17.655c0-9.71,7.945-17.655,17.655-17.655h61.793
		v-35.31H48.552v317.793H419.31V194.207H357.517z"/>
	<path style="fill:#A5A5A4;" d="M346.755,318.957c-3.302,24.444-10.867,47.139-22.246,66.86c18.82-7.848,41.834-31.929,41.834-50.37
		C366.343,330.918,366.343,322.046,346.755,318.957 M313.378,406.067c-2.71,0-5.385-0.247-8.174-0.768
		c-3.01-0.556-5.517-2.631-6.621-5.482c-1.112-2.842-0.662-6.065,1.174-8.51c16.772-22.245,27.569-51.659,30.42-82.829
		c0.433-4.749,4.493-8.192,9.313-8.015c36.785,2.189,44.509,20.233,44.509,34.984C383.998,368.188,341.264,406.067,313.378,406.067"
		/>
	<path style="fill:#ECF0F1;" d="M119.172,291.31c0,82.882,51.377,150.069,114.759,150.069S348.69,374.193,348.69,291.31H119.172z"/>
	<g>
		<path style="fill:#687492;" d="M375.172,512H92.69c-39,0-70.621-31.62-70.621-70.621h423.724
			C445.793,480.38,414.173,512,375.172,512"/>
		<path style="fill:#687492;" d="M445.793,123.586H22.069l0,0C22.069,55.331,77.4,0,145.655,0h176.552
			C390.462,0,445.793,55.331,445.793,123.586L445.793,123.586z"/>
	</g>
	<path style="fill:#A5A5A4;" d="M278.599,211.862h-89.335c-19.209,0-34.781-15.572-34.781-34.781v-53.495h158.897v53.495
		C313.379,196.29,297.807,211.862,278.599,211.862"/>
	<g>
		<path style="fill:#ECF0F1;" d="M202.98,247.172h-8.722c-7.336,0-13.294-5.95-13.294-13.294v-22.016h35.31v22.016
			C216.274,241.223,210.324,247.172,202.98,247.172"/>
		<path style="fill:#ECF0F1;" d="M273.6,247.172h-8.722c-7.345,0-13.294-5.95-13.294-13.294v-22.016h35.31v22.016
			C286.895,241.223,280.945,247.172,273.6,247.172"/>
		<path style="fill:#ECF0F1;" d="M339.862,185.379h-26.483c-4.873,0-8.828-3.946-8.828-8.828c0-4.882,3.955-8.828,8.828-8.828
			h26.483c4.873,0,8.828,3.946,8.828,8.828C348.69,181.433,344.735,185.379,339.862,185.379"/>
	</g>
	<path style="fill:#D1D4D1;" d="M472.276,194.207H357.517c-9.71,0-17.655-7.945-17.655-17.655l0,0
		c0-9.71,7.945-17.655,17.655-17.655h114.759c9.71,0,17.655,7.945,17.655,17.655l0,0
		C489.931,186.262,481.986,194.207,472.276,194.207"/>
	<path style="fill:#38454F;" d="M357.517,485.517H110.345c-4.873,0-8.828-3.946-8.828-8.828c0-4.882,3.955-8.828,8.828-8.828
		h247.172c4.873,0,8.828,3.946,8.828,8.828C366.345,481.571,362.39,485.517,357.517,485.517"/>
	<polygon style="fill:#B1D194;" points="154.483,88.273 313.379,88.273 313.379,35.308 154.483,35.308 	"/>
</g>
</svg>